# xmcd
#
# Track frame offsets: 
#        183
#        15580
#        34620
#        53425
#        69703
#        90965
#        108593
#        127238
#        149128
#        167170
#        183195
#
# Disc length: 2681 seconds
#
# Revision: 0
# Processed by: cddbd v1.5.2PL0 Copyright (c) Steve Scherf et al.
# Submitted via: ExactAudioCopy v1.0b3
#
DISCID=940a770b
DTITLE=童安格 - stereo花瓣雨
DYEAR=1990
DGENRE=stereo
TTITLE0=花瓣雨
TTITLE1=你我的爱只能擦肩而过
TTITLE2=晚归的丈夫
TTITLE3=那一段日子
TTITLE4=把根留住
TTITLE5=尘埃
TTITLE6=爱情终究是一场难圆的梦
TTITLE7=无所谓的歌
TTITLE8=香水城
TTITLE9=爱的主题曲
TTITLE10=跨过彩虹
EXTD=
EXTT0=
EXTT1=
EXTT2=
EXTT3=
EXTT4=
EXTT5=
EXTT6=
EXTT7=
EXTT8=
EXTT9=
EXTT10=
PLAYORDER=
